<svg xmlns="http://www.w3.org/2000/svg" viewBox="0 0 42.93 29.57"><defs><style>.cls-1{fill:#070707}.cls-2{fill:#080808}.cls-3{fill:#090909}.cls-4{fill:#0a0a0a}.cls-5{fill:#0b0b0b}.cls-6{fill:#0c0c0c}.cls-7{fill:#0d0d0d}.cls-8{fill:#0e0e0e}.cls-9{fill:#0f0f0f}.cls-10{fill:#101010}.cls-11{fill:#111}.cls-12{fill:#121212}.cls-13{fill:#131313}.cls-14{fill:#141414}.cls-15{fill:#151515}.cls-16{fill:#161616}.cls-17{fill:#171717}.cls-18{fill:#33e512}.cls-19{fill:#33e712}.cls-20{fill:#34e812}.cls-21{fill:#34ea12}.cls-22{fill:#35ec12}.cls-23{fill:#35ed13}.cls-24{fill:#35ef13}.cls-25{fill:#36f013}.cls-26{fill:#36f213}.cls-27{fill:#36f413}.cls-28{fill:#37f513}.cls-29{fill:#37f713}.cls-30{fill:#38f914}.cls-31{fill:#38fa14}.cls-32{fill:#38fc14}.cls-33{fill:#39fd14}.cls-34{fill:#39ff14}</style></defs><title>logo_standalone_6</title><g id="Layer_2" data-name="Layer 2"><g id="cli"><rect width="41.88" height="28.55" class="cls-1" rx=".28"/><rect width="41.88" height="28.55" x=".07" y=".06" class="cls-2" rx=".28"/><rect width="41.88" height="28.55" x=".13" y=".13" class="cls-3" rx=".28"/><rect width="41.88" height="28.55" x=".2" y=".19" class="cls-4" rx=".28"/><rect width="41.88" height="28.55" x=".26" y=".26" class="cls-5" rx=".28"/><rect width="41.88" height="28.55" x=".33" y=".32" class="cls-6" rx=".28"/><rect width="41.88" height="28.55" x=".39" y=".38" class="cls-7" rx=".28"/><rect width="41.88" height="28.55" x=".46" y=".45" class="cls-8" rx=".28"/><rect width="41.88" height="28.55" x=".52" y=".51" class="cls-9" rx=".28"/><rect width="41.88" height="28.55" x=".59" y=".58" class="cls-10" rx=".28"/><rect width="41.88" height="28.55" x=".65" y=".64" class="cls-11" rx=".28"/><rect width="41.88" height="28.55" x=".72" y=".7" class="cls-12" rx=".28"/><rect width="41.88" height="28.55" x=".78" y=".77" class="cls-13" rx=".28"/><rect width="41.88" height="28.55" x=".85" y=".83" class="cls-14" rx=".28"/><rect width="41.88" height="28.55" x=".91" y=".89" class="cls-15" rx=".28"/><rect width="41.88" height="28.55" x=".98" y=".96" class="cls-16" rx=".28"/><rect width="41.88" height="28.55" x="1.04" y="1.02" class="cls-17" rx=".28"/><polygon points="9.74 8.99 5.02 12.05 5.02 13.38 11.79 8.99 5.02 4.6 5.02 5.93 9.74 8.99" class="cls-18"/><polygon points="9.79 8.99 5.07 12.05 5.07 13.38 11.85 8.99 5.07 4.6 5.07 5.93 9.79 8.99" class="cls-19"/><polygon points="9.84 8.99 5.12 12.05 5.12 13.38 11.9 8.99 5.12 4.6 5.12 5.93 9.84 8.99" class="cls-20"/><polygon points="9.89 8.99 5.17 12.05 5.17 13.38 11.95 8.99 5.17 4.6 5.17 5.93 9.89 8.99" class="cls-21"/><polygon points="9.95 8.99 5.23 12.05 5.23 13.38 12 8.99 5.23 4.6 5.23 5.93 9.95 8.99" class="cls-22"/><polygon points="10 8.99 5.28 12.05 5.28 13.38 12.06 8.99 5.28 4.6 5.28 5.93 10 8.99" class="cls-23"/><polygon points="10.05 8.99 5.33 12.05 5.33 13.38 12.11 8.99 5.33 4.6 5.33 5.93 10.05 8.99" class="cls-24"/><polygon points="10.1 8.99 5.38 12.05 5.38 13.38 12.16 8.99 5.38 4.6 5.38 5.93 10.1 8.99" class="cls-25"/><polygon points="10.16 8.99 5.44 12.05 5.44 13.38 12.21 8.99 5.44 4.6 5.44 5.93 10.16 8.99" class="cls-26"/><polygon points="10.21 8.99 5.49 12.05 5.49 13.38 12.27 8.99 5.49 4.6 5.49 5.93 10.21 8.99" class="cls-27"/><polygon points="10.26 8.99 5.54 12.05 5.54 13.38 12.32 8.99 5.54 4.6 5.54 5.93 10.26 8.99" class="cls-28"/><polygon points="10.31 8.99 5.59 12.05 5.59 13.38 12.37 8.99 5.59 4.6 5.59 5.93 10.31 8.99" class="cls-29"/><polygon points="10.37 8.99 5.64 12.05 5.64 13.38 12.42 8.99 5.64 4.6 5.64 5.93 10.37 8.99" class="cls-30"/><polygon points="10.42 8.99 5.7 12.05 5.7 13.38 12.47 8.99 5.7 4.6 5.7 5.93 10.42 8.99" class="cls-31"/><polygon points="10.47 8.99 5.75 12.05 5.75 13.38 12.53 8.99 5.75 4.6 5.75 5.93 10.47 8.99" class="cls-32"/><polygon points="10.52 8.99 5.8 12.05 5.8 13.38 12.58 8.99 5.8 4.6 5.8 5.93 10.52 8.99" class="cls-33"/><polygon points="10.57 8.99 5.86 12.05 5.86 13.38 12.63 8.99 5.86 4.6 5.86 5.93 10.57 8.99" class="cls-34"/><rect width="4.05" height="1.7" x="10.21" y="12.25" class="cls-18" rx=".26"/><rect width="4.05" height="1.7" x="10.23" y="12.27" class="cls-19" rx=".26"/><rect width="4.05" height="1.7" x="10.24" y="12.29" class="cls-20" rx=".26"/><rect width="4.05" height="1.7" x="10.26" y="12.3" class="cls-21" rx=".26"/><rect width="4.05" height="1.7" x="10.28" y="12.32" class="cls-22" rx=".26"/><rect width="4.05" height="1.7" x="10.29" y="12.34" class="cls-23" rx=".26"/><rect width="4.05" height="1.7" x="10.31" y="12.36" class="cls-24" rx=".26"/><rect width="4.05" height="1.7" x="10.32" y="12.37" class="cls-25" rx=".26"/><rect width="4.05" height="1.7" x="10.34" y="12.39" class="cls-26" rx=".26"/><rect width="4.05" height="1.7" x="10.35" y="12.41" class="cls-27" rx=".26"/><rect width="4.05" height="1.7" x="10.37" y="12.43" class="cls-28" rx=".26"/><rect width="4.05" height="1.7" x="10.39" y="12.44" class="cls-29" rx=".26"/><rect width="4.05" height="1.7" x="10.4" y="12.46" class="cls-30" rx=".26"/><rect width="4.05" height="1.7" x="10.42" y="12.48" class="cls-31" rx=".26"/><rect width="4.05" height="1.7" x="10.43" y="12.5" class="cls-32" rx=".26"/><rect width="4.05" height="1.7" x="10.45" y="12.51" class="cls-33" rx=".26"/><rect width="4.05" height="1.7" x="10.47" y="12.53" class="cls-34" rx=".26"/></g></g></svg>