<svg xmlns="http://www.w3.org/2000/svg" viewBox="0 0 115.57 118.16"><defs><style>.cls-1{fill:#cdcdcd}.cls-2{fill:#c8c8c8}.cls-3{fill:#ac2d37}.cls-4{fill:#812229}.cls-5{fill:#585858}.cls-6{fill:#3b3b3b}.cls-7{fill:#ea636d}.cls-8{fill:#e53c49}.cls-9{fill:#565656}.cls-10{fill:#d9d9d9}.cls-11{fill:#bfbfbf}.cls-12{fill:#e5e5e5}.cls-13{fill:#fff}.cls-14{fill:#919191}.cls-15{fill:#3fa037}.cls-16{fill:#3f3e42}.cls-17{fill:#399031}</style></defs><title>sync</title><g id="Layer_2" data-name="Layer 2"><g id="sync"><g id="BG"><rect width="69.4" height="78.5" x="30.6" y="21.5" class="cls-1"/><polygon points="98.7 18.8 29.2 18.8 1.5 0 70.9 0 98.7 18.8" class="cls-2"/></g><ellipse cx="80.4" cy="39" class="cls-3" rx="3.5" ry="3.3"/><ellipse cx="80.4" cy="39" class="cls-4" rx="2.7" ry="2.6"/><ellipse cx="80.4" cy="39" rx="2" ry="1.9"/><polygon points="84.1 49.4 76.7 49.5 80.4 43.3 84.1 49.4" class="cls-5"/><polygon points="78.8 57.9 82 62.2 82 49.4 80.4 46.8 78.8 49.4 78.8 57.9" class="cls-6"/><polygon points="48.4 48.9 51.6 53.9 51.6 70 48.5 70 48.4 48.9" class="cls-5"/><polygon points="48.5 70 46.3 72 46.3 77.8 50 75.2 50 70 48.5 70" class="cls-7"/><polygon points="51.6 70 53.9 72 53.9 77.8 50.1 75.2 50.1 70 51.6 70" class="cls-8"/><polygon points="71.9 77.8 81.9 77.8 81.9 65 63.3 39.1 48.3 39.1 48.3 44.4 71.9 77.8" class="cls-9"/><ellipse cx="56.2" cy="64.4" class="cls-3" rx="2.5" ry="2.3"/><polygon points="98.7 18.8 100 21.5 30.6 21.5 29.2 18.8 98.7 18.8" class="cls-10"/><polygon points="1.5 0 0 2.9 27.8 21.4 29.2 18.8 1.5 0" class="cls-11"/><polyline points="27.8 99.3 30.6 100 30.6 21.5 29.2 18.8 27.8 21.4" class="cls-12"/><polygon points="27.8 21.4 30.6 21.5 29.2 18.8 27.8 21.4" class="cls-13"/><polygon points="48.3 39.1 75.6 77.8 71.9 77.8 48.3 44.4 48.3 39.1" class="cls-6"/><polygon points="0 2.9 27.8 21.4 27.8 99.3 0 80.5 0 2.9" class="cls-14"/><polygon points="84.48 109.05 88.92 106.48 88.96 108.57 100.05 113.37 111.14 108.6 111.15 101.43 100.02 96.41 99.35 97.73 95.01 91.34 102.75 90.58 101.89 92.45 115.57 98.39 115.57 111.4 100.05 118.16 84.48 111.36 84.48 109.05" class="cls-15"/><polygon points="100 102.21 100.61 101.01 104.97 107.46 97.23 108.23 98.02 106.17 84.43 100.31 84.43 87.2 100 80.44 115.57 87.15 115.57 94.09 111.09 92.19 111.1 90.18 100 85.33 88.92 90.08 88.88 97.42 100 102.21" class="cls-16"/><polygon points="84.48 109.05 88.92 106.48 88.96 108.57 84.48 111.36 84.48 109.05" class="cls-17"/></g></g></svg>