<svg xmlns="http://www.w3.org/2000/svg" viewBox="0 0 116.61 116.61"><defs><style>.cls-1{fill:#cdcdcd}.cls-2{fill:#c8c8c8}.cls-3{fill:#ac2d37}.cls-4{fill:#812229}.cls-5{fill:#585858}.cls-6{fill:#3b3b3b}.cls-7{fill:#ea636d}.cls-8{fill:#e53c49}.cls-9{fill:#565656}.cls-10{fill:#d9d9d9}.cls-11{fill:#bfbfbf}.cls-12{fill:#e5e5e5}.cls-13{fill:#fff}.cls-14{fill:#919191}.cls-15,.cls-16{fill:none;stroke-linecap:round;stroke-miterlimit:10}.cls-15{stroke:#e3b94f;stroke-width:3.08px}.cls-16{stroke:#e8c56e;stroke-width:1.92px}</style></defs><title>logo_4</title><g id="Layer_2" data-name="Layer 2"><g id="endpoints"><g id="BG"><rect width="69.4" height="78.5" x="30.6" y="21.5" class="cls-1"/><polygon points="98.7 18.8 29.2 18.8 1.5 0 70.9 0 98.7 18.8" class="cls-2"/></g><ellipse cx="80.4" cy="39" class="cls-3" rx="3.5" ry="3.3"/><ellipse cx="80.4" cy="39" class="cls-4" rx="2.7" ry="2.6"/><ellipse cx="80.4" cy="39" rx="2" ry="1.9"/><polygon points="84.1 49.4 76.7 49.5 80.4 43.3 84.1 49.4" class="cls-5"/><polygon points="78.8 57.9 82 62.2 82 49.4 80.4 46.8 78.8 49.4 78.8 57.9" class="cls-6"/><polygon points="48.4 48.9 51.6 53.9 51.6 70 48.5 70 48.4 48.9" class="cls-5"/><polygon points="48.5 70 46.3 72 46.3 77.8 50 75.2 50 70 48.5 70" class="cls-7"/><polygon points="51.6 70 53.9 72 53.9 77.8 50.1 75.2 50.1 70 51.6 70" class="cls-8"/><polygon points="71.9 77.8 81.9 77.8 81.9 65 63.3 39.1 48.3 39.1 48.3 44.4 71.9 77.8" class="cls-9"/><ellipse cx="56.2" cy="64.4" class="cls-3" rx="2.5" ry="2.3"/><polygon points="98.7 18.8 100 21.5 30.6 21.5 29.2 18.8 98.7 18.8" class="cls-10"/><polygon points="1.5 0 0 2.9 27.8 21.4 29.2 18.8 1.5 0" class="cls-11"/><polyline points="27.8 99.3 30.6 100 30.6 21.5 29.2 18.8 27.8 21.4" class="cls-12"/><polygon points="27.8 21.4 30.6 21.5 29.2 18.8 27.8 21.4" class="cls-13"/><polygon points="48.3 39.1 75.6 77.8 71.9 77.8 48.3 44.4 48.3 39.1" class="cls-6"/><polygon points="0 2.9 27.8 21.4 27.8 99.3 0 80.5 0 2.9" class="cls-14"/><path d="M115.06,100A15.06,15.06,0,1,1,100,84.94" class="cls-15"/><path d="M100,109.39a9.39,9.39,0,1,1,9.39-9.39h-9.08" class="cls-16"/></g></g></svg>